<?xml version="1.0" encoding="UTF-8" standalone="no"?>
<!DOCTYPE svg PUBLIC "-//W3C//DTD SVG 1.1//EN"
 "http://www.w3.org/Graphics/SVG/1.1/DTD/svg11.dtd">
<!-- Generated by graphviz version 13.1.0 (20250701.0955)
 -->
<!-- Title: interface/driver_isd17xx_interface.h Pages: 1 -->
<svg width="501pt" height="176pt"
 viewBox="0.00 0.00 501.00 176.00" xmlns="http://www.w3.org/2000/svg" xmlns:xlink="http://www.w3.org/1999/xlink">
<g id="graph0" class="graph" transform="scale(1 1) rotate(0) translate(4 172)">
<title>interface/driver_isd17xx_interface.h</title>
<!-- Node1 -->
<g id="Node000001" class="node">
<title>Node1</title>
<g id="a_Node000001"><a xlink:title="driver isd17xx interface header file">
<polygon fill="#999999" stroke="#666666" points="320.12,-168 200.62,-168 200.62,-136 320.12,-136 320.12,-168"/>
<text xml:space="preserve" text-anchor="start" x="208.62" y="-154.5" font-family="Helvetica,sans-Serif" font-size="10.00">interface/driver_isd17xx</text>
<text xml:space="preserve" text-anchor="middle" x="260.38" y="-142.5" font-family="Helvetica,sans-Serif" font-size="10.00">_interface.h</text>
</a>
</g>
</g>
<!-- Node2 -->
<g id="Node000002" class="node">
<title>Node2</title>
<g id="a_Node000002"><a xlink:href="driver__isd17xx__basic_8h.html" target="_top" xlink:title="driver isd17xx basic header file">
<polygon fill="white" stroke="#666666" points="118.75,-100 0,-100 0,-68 118.75,-68 118.75,-100"/>
<text xml:space="preserve" text-anchor="start" x="8" y="-86.5" font-family="Helvetica,sans-Serif" font-size="10.00">example/driver_isd17xx</text>
<text xml:space="preserve" text-anchor="middle" x="59.38" y="-74.5" font-family="Helvetica,sans-Serif" font-size="10.00">_basic.h</text>
</a>
</g>
</g>
<!-- Node1&#45;&gt;Node2 -->
<g id="edge1_Node000001_Node000002" class="edge">
<title>Node1&#45;&gt;Node2</title>
<g id="a_edge1_Node000001_Node000002"><a xlink:title=" ">
<path fill="none" stroke="#63b8ff" d="M202.36,-131.95C171.96,-121.97 135.19,-109.89 106.55,-100.49"/>
<polygon fill="#63b8ff" stroke="#63b8ff" points="201.22,-135.26 211.81,-135.05 203.4,-128.61 201.22,-135.26"/>
</a>
</g>
</g>
<!-- Node4 -->
<g id="Node000004" class="node">
<title>Node4</title>
<g id="a_Node000004"><a xlink:href="driver__isd17xx__interface__template_8c.html" target="_top" xlink:title="driver isd17xx interface template source file">
<polygon fill="white" stroke="#666666" points="256.12,-100 136.62,-100 136.62,-68 256.12,-68 256.12,-100"/>
<text xml:space="preserve" text-anchor="start" x="144.62" y="-86.5" font-family="Helvetica,sans-Serif" font-size="10.00">interface/driver_isd17xx</text>
<text xml:space="preserve" text-anchor="middle" x="196.38" y="-74.5" font-family="Helvetica,sans-Serif" font-size="10.00">_interface_template.c</text>
</a>
</g>
</g>
<!-- Node1&#45;&gt;Node4 -->
<g id="edge3_Node000001_Node000004" class="edge">
<title>Node1&#45;&gt;Node4</title>
<g id="a_edge3_Node000001_Node000004"><a xlink:title=" ">
<path fill="none" stroke="#63b8ff" d="M237.52,-127.43C228.74,-118.38 218.96,-108.29 211.14,-100.22"/>
<polygon fill="#63b8ff" stroke="#63b8ff" points="235,-129.86 244.48,-134.61 240.03,-124.99 235,-129.86"/>
</a>
</g>
</g>
<!-- Node5 -->
<g id="Node000005" class="node">
<title>Node5</title>
<g id="a_Node000005"><a xlink:href="driver__isd17xx__play__record__test_8h.html" target="_top" xlink:title="driver isd17xx play record test header file">
<polygon fill="white" stroke="#666666" points="376.12,-100 274.62,-100 274.62,-68 376.12,-68 376.12,-100"/>
<text xml:space="preserve" text-anchor="start" x="282.62" y="-86.5" font-family="Helvetica,sans-Serif" font-size="10.00">test/driver_isd17xx</text>
<text xml:space="preserve" text-anchor="middle" x="325.38" y="-74.5" font-family="Helvetica,sans-Serif" font-size="10.00">_play_record_test.h</text>
</a>
</g>
</g>
<!-- Node1&#45;&gt;Node5 -->
<g id="edge4_Node000001_Node000005" class="edge">
<title>Node1&#45;&gt;Node5</title>
<g id="a_edge4_Node000001_Node000005"><a xlink:title=" ">
<path fill="none" stroke="#63b8ff" d="M283.31,-127.71C292.3,-118.59 302.36,-108.37 310.38,-100.22"/>
<polygon fill="#63b8ff" stroke="#63b8ff" points="281.04,-125.03 276.51,-134.61 286.02,-129.95 281.04,-125.03"/>
</a>
</g>
</g>
<!-- Node7 -->
<g id="Node000007" class="node">
<title>Node7</title>
<g id="a_Node000007"><a xlink:href="driver__isd17xx__register__test_8h.html" target="_top" xlink:title="driver isd17xx register test header file">
<polygon fill="white" stroke="#666666" points="492.62,-100 394.12,-100 394.12,-68 492.62,-68 492.62,-100"/>
<text xml:space="preserve" text-anchor="start" x="402.12" y="-86.5" font-family="Helvetica,sans-Serif" font-size="10.00">test/driver_isd17xx</text>
<text xml:space="preserve" text-anchor="middle" x="443.38" y="-74.5" font-family="Helvetica,sans-Serif" font-size="10.00">_register_test.h</text>
</a>
</g>
</g>
<!-- Node1&#45;&gt;Node7 -->
<g id="edge6_Node000001_Node000007" class="edge">
<title>Node1&#45;&gt;Node7</title>
<g id="a_edge6_Node000001_Node000007"><a xlink:title=" ">
<path fill="none" stroke="#63b8ff" d="M313.92,-131.69C341.46,-121.76 374.58,-109.81 400.42,-100.49"/>
<polygon fill="#63b8ff" stroke="#63b8ff" points="312.92,-128.33 304.7,-135.01 315.3,-134.91 312.92,-128.33"/>
</a>
</g>
</g>
<!-- Node3 -->
<g id="Node000003" class="node">
<title>Node3</title>
<g id="a_Node000003"><a xlink:href="driver__isd17xx__basic_8c.html" target="_top" xlink:title="driver isd17xx basic source file">
<polygon fill="white" stroke="#666666" points="118.75,-32 0,-32 0,0 118.75,0 118.75,-32"/>
<text xml:space="preserve" text-anchor="start" x="8" y="-18.5" font-family="Helvetica,sans-Serif" font-size="10.00">example/driver_isd17xx</text>
<text xml:space="preserve" text-anchor="middle" x="59.38" y="-6.5" font-family="Helvetica,sans-Serif" font-size="10.00">_basic.c</text>
</a>
</g>
</g>
<!-- Node2&#45;&gt;Node3 -->
<g id="edge2_Node000002_Node000003" class="edge">
<title>Node2&#45;&gt;Node3</title>
<g id="a_edge2_Node000002_Node000003"><a xlink:title=" ">
<path fill="none" stroke="#63b8ff" d="M59.38,-56.31C59.38,-48.12 59.38,-39.38 59.38,-32.22"/>
<polygon fill="#63b8ff" stroke="#63b8ff" points="55.88,-56.18 59.38,-66.18 62.88,-56.18 55.88,-56.18"/>
</a>
</g>
</g>
<!-- Node6 -->
<g id="Node000006" class="node">
<title>Node6</title>
<g id="a_Node000006"><a xlink:href="driver__isd17xx__play__record__test_8c.html" target="_top" xlink:title="driver isd17xx play record test source file">
<polygon fill="white" stroke="#666666" points="376.12,-32 274.62,-32 274.62,0 376.12,0 376.12,-32"/>
<text xml:space="preserve" text-anchor="start" x="282.62" y="-18.5" font-family="Helvetica,sans-Serif" font-size="10.00">test/driver_isd17xx</text>
<text xml:space="preserve" text-anchor="middle" x="325.38" y="-6.5" font-family="Helvetica,sans-Serif" font-size="10.00">_play_record_test.c</text>
</a>
</g>
</g>
<!-- Node5&#45;&gt;Node6 -->
<g id="edge5_Node000005_Node000006" class="edge">
<title>Node5&#45;&gt;Node6</title>
<g id="a_edge5_Node000005_Node000006"><a xlink:title=" ">
<path fill="none" stroke="#63b8ff" d="M325.38,-56.31C325.38,-48.12 325.38,-39.38 325.38,-32.22"/>
<polygon fill="#63b8ff" stroke="#63b8ff" points="321.88,-56.18 325.38,-66.18 328.88,-56.18 321.88,-56.18"/>
</a>
</g>
</g>
<!-- Node8 -->
<g id="Node000008" class="node">
<title>Node8</title>
<g id="a_Node000008"><a xlink:href="driver__isd17xx__register__test_8c.html" target="_top" xlink:title="driver isd17xx register test source file">
<polygon fill="white" stroke="#666666" points="492.62,-32 394.12,-32 394.12,0 492.62,0 492.62,-32"/>
<text xml:space="preserve" text-anchor="start" x="402.12" y="-18.5" font-family="Helvetica,sans-Serif" font-size="10.00">test/driver_isd17xx</text>
<text xml:space="preserve" text-anchor="middle" x="443.38" y="-6.5" font-family="Helvetica,sans-Serif" font-size="10.00">_register_test.c</text>
</a>
</g>
</g>
<!-- Node7&#45;&gt;Node8 -->
<g id="edge7_Node000007_Node000008" class="edge">
<title>Node7&#45;&gt;Node8</title>
<g id="a_edge7_Node000007_Node000008"><a xlink:title=" ">
<path fill="none" stroke="#63b8ff" d="M443.38,-56.31C443.38,-48.12 443.38,-39.38 443.38,-32.22"/>
<polygon fill="#63b8ff" stroke="#63b8ff" points="439.88,-56.18 443.38,-66.18 446.88,-56.18 439.88,-56.18"/>
</a>
</g>
</g>
</g>
</svg>
