<?xml version="1.0" encoding="UTF-8" standalone="no"?>
<!DOCTYPE svg PUBLIC "-//W3C//DTD SVG 1.1//EN"
 "http://www.w3.org/Graphics/SVG/1.1/DTD/svg11.dtd">
<!-- Generated by graphviz version 13.1.0 (20250701.0955)
 -->
<!-- Title: isd17xx_basic_record Pages: 1 -->
<svg width="255pt" height="66pt"
 viewBox="0.00 0.00 255.00 66.00" xmlns="http://www.w3.org/2000/svg" xmlns:xlink="http://www.w3.org/1999/xlink">
<g id="graph0" class="graph" transform="scale(1 1) rotate(0) translate(4 62)">
<title>isd17xx_basic_record</title>
<!-- Node1 -->
<g id="Node000001" class="node">
<title>Node1</title>
<g id="a_Node000001"><a xlink:title="basic example record">
<polygon fill="#999999" stroke="#666666" points="110.5,-39 0,-39 0,-19 110.5,-19 110.5,-39"/>
<text xml:space="preserve" text-anchor="middle" x="55.25" y="-25.5" font-family="Helvetica,sans-Serif" font-size="10.00">isd17xx_basic_record</text>
</a>
</g>
</g>
<!-- Node2 -->
<g id="Node000002" class="node">
<title>Node2</title>
<g id="a_Node000002"><a xlink:href="group__isd17xx__base__driver.html#gaa38f635ec340d1d1935d6798a3604395" target="_top" xlink:title="record">
<polygon fill="white" stroke="#666666" points="237.88,-58 155.88,-58 155.88,-38 237.88,-38 237.88,-58"/>
<text xml:space="preserve" text-anchor="middle" x="196.88" y="-44.5" font-family="Helvetica,sans-Serif" font-size="10.00">isd17xx_record</text>
</a>
</g>
</g>
<!-- Node1&#45;&gt;Node2 -->
<g id="edge1_Node000001_Node000002" class="edge">
<title>Node1&#45;&gt;Node2</title>
<g id="a_edge1_Node000001_Node000002"><a xlink:title=" ">
<path fill="none" stroke="#63b8ff" d="M110.63,-36.4C121.77,-37.92 133.46,-39.51 144.49,-41.01"/>
<polygon fill="#63b8ff" stroke="#63b8ff" points="143.81,-44.45 154.19,-42.33 144.76,-37.51 143.81,-44.45"/>
</a>
</g>
</g>
<!-- Node3 -->
<g id="Node000003" class="node">
<title>Node3</title>
<g id="a_Node000003"><a xlink:href="group__isd17xx__base__driver.html#ga283dc64a93432cccfc99464cfaf9b149" target="_top" xlink:title="set the record point">
<polygon fill="white" stroke="#666666" points="247.25,-20 146.5,-20 146.5,0 247.25,0 247.25,-20"/>
<text xml:space="preserve" text-anchor="middle" x="196.88" y="-6.5" font-family="Helvetica,sans-Serif" font-size="10.00">isd17xx_set_record</text>
</a>
</g>
</g>
<!-- Node1&#45;&gt;Node3 -->
<g id="edge2_Node000001_Node000003" class="edge">
<title>Node1&#45;&gt;Node3</title>
<g id="a_edge2_Node000001_Node000003"><a xlink:title=" ">
<path fill="none" stroke="#63b8ff" d="M110.63,-21.6C118.65,-20.51 126.95,-19.38 135.08,-18.27"/>
<polygon fill="#63b8ff" stroke="#63b8ff" points="135.49,-21.75 144.92,-16.93 134.54,-14.81 135.49,-21.75"/>
</a>
</g>
</g>
</g>
</svg>
