<?xml version="1.0" encoding="UTF-8" standalone="no"?>
<!DOCTYPE svg PUBLIC "-//W3C//DTD SVG 1.1//EN"
 "http://www.w3.org/Graphics/SVG/1.1/DTD/svg11.dtd">
<!-- Generated by graphviz version 13.1.0 (20250701.0955)
 -->
<!-- Title: isd17xx_basic_erase Pages: 1 -->
<svg width="291pt" height="142pt"
 viewBox="0.00 0.00 291.00 142.00" xmlns="http://www.w3.org/2000/svg" xmlns:xlink="http://www.w3.org/1999/xlink">
<g id="graph0" class="graph" transform="scale(1 1) rotate(0) translate(4 138)">
<title>isd17xx_basic_erase</title>
<!-- Node1 -->
<g id="Node000001" class="node">
<title>Node1</title>
<g id="a_Node000001"><a xlink:title="basic example erase">
<polygon fill="#999999" stroke="#666666" points="107.5,-77 0,-77 0,-57 107.5,-57 107.5,-77"/>
<text xml:space="preserve" text-anchor="middle" x="53.75" y="-63.5" font-family="Helvetica,sans-Serif" font-size="10.00">isd17xx_basic_erase</text>
</a>
</g>
</g>
<!-- Node2 -->
<g id="Node000002" class="node">
<title>Node2</title>
<g id="a_Node000002"><a xlink:href="group__isd17xx__base__driver.html#gac93695e98dedac9562b091420ee65ffa" target="_top" xlink:title="erase">
<polygon fill="white" stroke="#666666" points="252.88,-134 173.88,-134 173.88,-114 252.88,-114 252.88,-134"/>
<text xml:space="preserve" text-anchor="middle" x="213.38" y="-120.5" font-family="Helvetica,sans-Serif" font-size="10.00">isd17xx_erase</text>
</a>
</g>
</g>
<!-- Node1&#45;&gt;Node2 -->
<g id="edge1_Node000001_Node000002" class="edge">
<title>Node1&#45;&gt;Node2</title>
<g id="a_edge1_Node000001_Node000002"><a xlink:title=" ">
<path fill="none" stroke="#63b8ff" d="M76.67,-77.37C94.43,-85.54 120.25,-96.86 143.5,-105 149.65,-107.15 156.18,-109.22 162.66,-111.15"/>
<polygon fill="#63b8ff" stroke="#63b8ff" points="161.44,-114.44 172.02,-113.84 163.38,-107.72 161.44,-114.44"/>
</a>
</g>
</g>
<!-- Node3 -->
<g id="Node000003" class="node">
<title>Node3</title>
<g id="a_Node000003"><a xlink:href="group__isd17xx__base__driver.html#ga8ad05bebe1927670dafb8ecca24781fb" target="_top" xlink:title="get the status">
<polygon fill="white" stroke="#666666" points="263.75,-96 163,-96 163,-76 263.75,-76 263.75,-96"/>
<text xml:space="preserve" text-anchor="middle" x="213.38" y="-82.5" font-family="Helvetica,sans-Serif" font-size="10.00">isd17xx_get_status</text>
</a>
</g>
</g>
<!-- Node1&#45;&gt;Node3 -->
<g id="edge2_Node000001_Node000003" class="edge">
<title>Node1&#45;&gt;Node3</title>
<g id="a_edge2_Node000001_Node000003"><a xlink:title=" ">
<path fill="none" stroke="#63b8ff" d="M107.68,-73.38C121.65,-75.06 136.84,-76.9 151.21,-78.63"/>
<polygon fill="#63b8ff" stroke="#63b8ff" points="150.67,-82.09 161.02,-79.81 151.51,-75.14 150.67,-82.09"/>
</a>
</g>
</g>
<!-- Node4 -->
<g id="Node000004" class="node">
<title>Node4</title>
<g id="a_Node000004"><a xlink:href="group__isd17xx__interface__driver.html#ga0f0857d195891cd641fe9252421946e2" target="_top" xlink:title="interface delay ms">
<polygon fill="white" stroke="#666666" points="283.25,-58 143.5,-58 143.5,-38 283.25,-38 283.25,-58"/>
<text xml:space="preserve" text-anchor="middle" x="213.38" y="-44.5" font-family="Helvetica,sans-Serif" font-size="10.00">isd17xx_interface_delay_ms</text>
</a>
</g>
</g>
<!-- Node1&#45;&gt;Node4 -->
<g id="edge3_Node000001_Node000004" class="edge">
<title>Node1&#45;&gt;Node4</title>
<g id="a_edge3_Node000001_Node000004"><a xlink:title=" ">
<path fill="none" stroke="#63b8ff" d="M107.68,-60.62C115.48,-59.68 123.67,-58.69 131.89,-57.7"/>
<polygon fill="#63b8ff" stroke="#63b8ff" points="132.06,-61.21 141.57,-56.53 131.22,-54.26 132.06,-61.21"/>
</a>
</g>
</g>
<!-- Node5 -->
<g id="Node000005" class="node">
<title>Node5</title>
<g id="a_Node000005"><a xlink:href="group__isd17xx__base__driver.html#ga9a67733961b3928742c670abad63026c" target="_top" xlink:title="set the erase point">
<polygon fill="white" stroke="#666666" points="262.25,-20 164.5,-20 164.5,0 262.25,0 262.25,-20"/>
<text xml:space="preserve" text-anchor="middle" x="213.38" y="-6.5" font-family="Helvetica,sans-Serif" font-size="10.00">isd17xx_set_erase</text>
</a>
</g>
</g>
<!-- Node1&#45;&gt;Node5 -->
<g id="edge4_Node000001_Node000005" class="edge">
<title>Node1&#45;&gt;Node5</title>
<g id="a_edge4_Node000001_Node000005"><a xlink:title=" ">
<path fill="none" stroke="#63b8ff" d="M76.67,-56.63C94.43,-48.46 120.25,-37.14 143.5,-29 148.85,-27.13 154.49,-25.32 160.13,-23.61"/>
<polygon fill="#63b8ff" stroke="#63b8ff" points="160.87,-27.04 169.49,-20.88 158.91,-20.32 160.87,-27.04"/>
</a>
</g>
</g>
</g>
</svg>
