<?xml version="1.0" encoding="UTF-8" standalone="no"?>
<!DOCTYPE svg PUBLIC "-//W3C//DTD SVG 1.1//EN"
 "http://www.w3.org/Graphics/SVG/1.1/DTD/svg11.dtd">
<!-- Generated by graphviz version 13.1.0 (20250701.0955)
 -->
<!-- Title: isd17xx_basic_init Pages: 1 -->
<svg width="280pt" height="1122pt"
 viewBox="0.00 0.00 280.00 1122.00" xmlns="http://www.w3.org/2000/svg" xmlns:xlink="http://www.w3.org/1999/xlink">
<g id="graph0" class="graph" transform="scale(1 1) rotate(0) translate(4 1118)">
<title>isd17xx_basic_init</title>
<!-- Node1 -->
<g id="Node000001" class="node">
<title>Node1</title>
<g id="a_Node000001"><a xlink:title="basic example init">
<polygon fill="#999999" stroke="#666666" points="96.25,-558 0,-558 0,-538 96.25,-538 96.25,-558"/>
<text xml:space="preserve" text-anchor="middle" x="48.12" y="-544.5" font-family="Helvetica,sans-Serif" font-size="10.00">isd17xx_basic_init</text>
</a>
</g>
</g>
<!-- Node2 -->
<g id="Node000002" class="node">
<title>Node2</title>
<g id="a_Node000002"><a xlink:href="group__isd17xx__base__driver.html#gab5a9df24959ba8e2c8154fe0b8039636" target="_top" xlink:title="check memory">
<polygon fill="white" stroke="#666666" points="263,-1114 141.25,-1114 141.25,-1094 263,-1094 263,-1114"/>
<text xml:space="preserve" text-anchor="middle" x="202.12" y="-1100.5" font-family="Helvetica,sans-Serif" font-size="10.00">isd17xx_check_memory</text>
</a>
</g>
</g>
<!-- Node1&#45;&gt;Node2 -->
<g id="edge1_Node000001_Node000002" class="edge">
<title>Node1&#45;&gt;Node2</title>
<g id="a_edge1_Node000001_Node000002"><a xlink:title=" ">
<path fill="none" stroke="#63b8ff" d="M49.25,-558.24C50.26,-625.41 59.15,-1002.93 132.25,-1085 132.82,-1085.64 133.41,-1086.26 134.02,-1086.87"/>
<polygon fill="#63b8ff" stroke="#63b8ff" points="131.58,-1089.4 141.65,-1092.68 135.82,-1083.83 131.58,-1089.4"/>
</a>
</g>
</g>
<!-- Node3 -->
<g id="Node000003" class="node">
<title>Node3</title>
<g id="a_Node000003"><a xlink:href="group__isd17xx__base__driver.html#gaf64fc3825c01d14b14b4b7330c504b47" target="_top" xlink:title="close the chip">
<polygon fill="white" stroke="#666666" points="241.25,-1076 163,-1076 163,-1056 241.25,-1056 241.25,-1076"/>
<text xml:space="preserve" text-anchor="middle" x="202.12" y="-1062.5" font-family="Helvetica,sans-Serif" font-size="10.00">isd17xx_deinit</text>
</a>
</g>
</g>
<!-- Node1&#45;&gt;Node3 -->
<g id="edge2_Node000001_Node000003" class="edge">
<title>Node1&#45;&gt;Node3</title>
<g id="a_edge2_Node000001_Node000003"><a xlink:title=" ">
<path fill="none" stroke="#63b8ff" d="M49.38,-558.34C51.19,-622.99 64.06,-971.31 132.25,-1047 137.49,-1052.82 144.34,-1056.92 151.68,-1059.81"/>
<polygon fill="#63b8ff" stroke="#63b8ff" points="150.63,-1063.14 161.22,-1062.76 152.7,-1056.46 150.63,-1063.14"/>
</a>
</g>
</g>
<!-- Node4 -->
<g id="Node000004" class="node">
<title>Node4</title>
<g id="a_Node000004"><a xlink:href="group__isd17xx__base__driver.html#gab5385fb95cd4c9f569fe44fd2c484531" target="_top" xlink:title="initialize the chip">
<polygon fill="white" stroke="#666666" points="236,-1038 168.25,-1038 168.25,-1018 236,-1018 236,-1038"/>
<text xml:space="preserve" text-anchor="middle" x="202.12" y="-1024.5" font-family="Helvetica,sans-Serif" font-size="10.00">isd17xx_init</text>
</a>
</g>
</g>
<!-- Node1&#45;&gt;Node4 -->
<g id="edge3_Node000001_Node000004" class="edge">
<title>Node1&#45;&gt;Node4</title>
<g id="a_edge3_Node000001_Node000004"><a xlink:title=" ">
<path fill="none" stroke="#63b8ff" d="M49.54,-558.35C52.2,-620.09 68.91,-939.64 132.25,-1009 138.8,-1016.18 147.8,-1020.74 157.12,-1023.62"/>
<polygon fill="#63b8ff" stroke="#63b8ff" points="156.08,-1026.97 166.62,-1025.92 157.73,-1020.16 156.08,-1026.97"/>
</a>
</g>
</g>
<!-- Node5 -->
<g id="Node000005" class="node">
<title>Node5</title>
<g id="a_Node000005"><a xlink:href="group__isd17xx__interface__driver.html#ga099b08bbbc9543cd5f5a4bf41b7f21b8" target="_top" xlink:title="interface print format data">
<polygon fill="white" stroke="#666666" points="264.12,-1000 140.12,-1000 140.12,-968 264.12,-968 264.12,-1000"/>
<text xml:space="preserve" text-anchor="start" x="148.12" y="-986.5" font-family="Helvetica,sans-Serif" font-size="10.00">isd17xx_interface_debug</text>
<text xml:space="preserve" text-anchor="middle" x="202.12" y="-974.5" font-family="Helvetica,sans-Serif" font-size="10.00">_print</text>
</a>
</g>
</g>
<!-- Node1&#45;&gt;Node5 -->
<g id="edge4_Node000001_Node000005" class="edge">
<title>Node1&#45;&gt;Node5</title>
<g id="a_edge4_Node000001_Node000005"><a xlink:title=" ">
<path fill="none" stroke="#63b8ff" d="M49.86,-558.27C54.16,-615.58 77.73,-895.71 132.25,-959 132.6,-959.41 132.96,-959.81 133.33,-960.21"/>
<polygon fill="#63b8ff" stroke="#63b8ff" points="130.92,-962.76 140.79,-966.61 135.48,-957.44 130.92,-962.76"/>
</a>
</g>
</g>
<!-- Node6 -->
<g id="Node000006" class="node">
<title>Node6</title>
<g id="a_Node000006"><a xlink:href="group__isd17xx__interface__driver.html#ga0f0857d195891cd641fe9252421946e2" target="_top" xlink:title="interface delay ms">
<polygon fill="white" stroke="#666666" points="272,-950 132.25,-950 132.25,-930 272,-930 272,-950"/>
<text xml:space="preserve" text-anchor="middle" x="202.12" y="-936.5" font-family="Helvetica,sans-Serif" font-size="10.00">isd17xx_interface_delay_ms</text>
</a>
</g>
</g>
<!-- Node1&#45;&gt;Node6 -->
<g id="edge5_Node000001_Node000006" class="edge">
<title>Node1&#45;&gt;Node6</title>
<g id="a_edge5_Node000001_Node000006"><a xlink:title=" ">
<path fill="none" stroke="#63b8ff" d="M50.02,-558.44C54.91,-613.14 80.12,-866.2 132.25,-921 132.86,-921.64 133.49,-922.26 134.13,-922.86"/>
<polygon fill="#63b8ff" stroke="#63b8ff" points="132.04,-925.66 142.19,-928.68 136.13,-919.98 132.04,-925.66"/>
</a>
</g>
</g>
<!-- Node7 -->
<g id="Node000007" class="node">
<title>Node7</title>
<g id="a_Node000007"><a xlink:href="group__isd17xx__interface__driver.html#ga21a461d073440dd94e903d23a0cf32ff" target="_top" xlink:title="interface gpio reset deinit">
<polygon fill="white" stroke="#666666" points="260,-912 144.25,-912 144.25,-880 260,-880 260,-912"/>
<text xml:space="preserve" text-anchor="start" x="152.25" y="-898.5" font-family="Helvetica,sans-Serif" font-size="10.00">isd17xx_interface_gpio</text>
<text xml:space="preserve" text-anchor="middle" x="202.12" y="-886.5" font-family="Helvetica,sans-Serif" font-size="10.00">_reset_deinit</text>
</a>
</g>
</g>
<!-- Node1&#45;&gt;Node7 -->
<g id="edge6_Node000001_Node000007" class="edge">
<title>Node1&#45;&gt;Node7</title>
<g id="a_edge6_Node000001_Node000007"><a xlink:title=" ">
<path fill="none" stroke="#63b8ff" d="M50.47,-558.27C57.16,-607.91 88.26,-822.56 132.25,-871 133.11,-871.94 134,-872.85 134.93,-873.72"/>
<polygon fill="#63b8ff" stroke="#63b8ff" points="132.79,-876.5 142.87,-879.77 137.03,-870.93 132.79,-876.5"/>
</a>
</g>
</g>
<!-- Node8 -->
<g id="Node000008" class="node">
<title>Node8</title>
<g id="a_Node000008"><a xlink:href="group__isd17xx__interface__driver.html#ga4f7eda6975d38a331bd0d24cac1c43ff" target="_top" xlink:title="interface gpio reset init">
<polygon fill="white" stroke="#666666" points="260,-862 144.25,-862 144.25,-830 260,-830 260,-862"/>
<text xml:space="preserve" text-anchor="start" x="152.25" y="-848.5" font-family="Helvetica,sans-Serif" font-size="10.00">isd17xx_interface_gpio</text>
<text xml:space="preserve" text-anchor="middle" x="202.12" y="-836.5" font-family="Helvetica,sans-Serif" font-size="10.00">_reset_init</text>
</a>
</g>
</g>
<!-- Node1&#45;&gt;Node8 -->
<g id="edge7_Node000001_Node000008" class="edge">
<title>Node1&#45;&gt;Node8</title>
<g id="a_edge7_Node000001_Node000008"><a xlink:title=" ">
<path fill="none" stroke="#63b8ff" d="M49.15,-558.26C49.8,-597.8 57.4,-742.11 132.25,-821 133.1,-821.9 133.99,-822.77 134.91,-823.6"/>
<polygon fill="#63b8ff" stroke="#63b8ff" points="132.6,-826.24 142.71,-829.42 136.78,-820.63 132.6,-826.24"/>
</a>
</g>
</g>
<!-- Node9 -->
<g id="Node000009" class="node">
<title>Node9</title>
<g id="a_Node000009"><a xlink:href="group__isd17xx__interface__driver.html#ga255ba2aa3951e394a857f4d2a8f93a85" target="_top" xlink:title="interface gpio reset write">
<polygon fill="white" stroke="#666666" points="260,-812 144.25,-812 144.25,-780 260,-780 260,-812"/>
<text xml:space="preserve" text-anchor="start" x="152.25" y="-798.5" font-family="Helvetica,sans-Serif" font-size="10.00">isd17xx_interface_gpio</text>
<text xml:space="preserve" text-anchor="middle" x="202.12" y="-786.5" font-family="Helvetica,sans-Serif" font-size="10.00">_reset_write</text>
</a>
</g>
</g>
<!-- Node1&#45;&gt;Node9 -->
<g id="edge8_Node000001_Node000009" class="edge">
<title>Node1&#45;&gt;Node9</title>
<g id="a_edge8_Node000001_Node000009"><a xlink:title=" ">
<path fill="none" stroke="#63b8ff" d="M49.94,-558.03C53.27,-592.61 68.87,-708.17 132.25,-771 133,-771.74 133.78,-772.47 134.57,-773.17"/>
<polygon fill="#63b8ff" stroke="#63b8ff" points="132.45,-775.95 142.6,-779 136.57,-770.29 132.45,-775.95"/>
</a>
</g>
</g>
<!-- Node10 -->
<g id="Node000010" class="node">
<title>Node10</title>
<g id="a_Node000010"><a xlink:href="group__isd17xx__interface__driver.html#gac8997c58751f89a71e91a6d226d63025" target="_top" xlink:title="interface spi bus deinit">
<polygon fill="white" stroke="#666666" points="257.38,-762 146.88,-762 146.88,-730 257.38,-730 257.38,-762"/>
<text xml:space="preserve" text-anchor="start" x="154.88" y="-748.5" font-family="Helvetica,sans-Serif" font-size="10.00">isd17xx_interface_spi</text>
<text xml:space="preserve" text-anchor="middle" x="202.12" y="-736.5" font-family="Helvetica,sans-Serif" font-size="10.00">_deinit</text>
</a>
</g>
</g>
<!-- Node1&#45;&gt;Node10 -->
<g id="edge9_Node000001_Node000010" class="edge">
<title>Node1&#45;&gt;Node10</title>
<g id="a_edge9_Node000001_Node000010"><a xlink:title=" ">
<path fill="none" stroke="#63b8ff" d="M51.19,-558.2C57.67,-587.71 80.36,-674.05 132.25,-721 133.71,-722.32 135.24,-723.57 136.84,-724.76"/>
<polygon fill="#63b8ff" stroke="#63b8ff" points="134.93,-727.69 145.26,-730.07 138.66,-721.77 134.93,-727.69"/>
</a>
</g>
</g>
<!-- Node11 -->
<g id="Node000011" class="node">
<title>Node11</title>
<g id="a_Node000011"><a xlink:href="group__isd17xx__interface__driver.html#gaf14b1ef4adbe1360f26bbe7ae617d2b7" target="_top" xlink:title="interface spi bus init">
<polygon fill="white" stroke="#666666" points="266.38,-712 137.88,-712 137.88,-692 266.38,-692 266.38,-712"/>
<text xml:space="preserve" text-anchor="middle" x="202.12" y="-698.5" font-family="Helvetica,sans-Serif" font-size="10.00">isd17xx_interface_spi_init</text>
</a>
</g>
</g>
<!-- Node1&#45;&gt;Node11 -->
<g id="edge10_Node000001_Node000011" class="edge">
<title>Node1&#45;&gt;Node11</title>
<g id="a_edge10_Node000001_Node000011"><a xlink:title=" ">
<path fill="none" stroke="#63b8ff" d="M52.46,-558.27C61.22,-583.58 87.35,-649.29 132.25,-683 133.82,-684.18 135.46,-685.28 137.15,-686.32"/>
<polygon fill="#63b8ff" stroke="#63b8ff" points="135.49,-689.4 145.99,-690.85 138.68,-683.17 135.49,-689.4"/>
</a>
</g>
</g>
<!-- Node12 -->
<g id="Node000012" class="node">
<title>Node12</title>
<g id="a_Node000012"><a xlink:href="group__isd17xx__interface__driver.html#ga7848818b8ae87606c55fe9acfd3c953a" target="_top" xlink:title="interface spi bus read">
<polygon fill="white" stroke="#666666" points="269.38,-674 134.88,-674 134.88,-654 269.38,-654 269.38,-674"/>
<text xml:space="preserve" text-anchor="middle" x="202.12" y="-660.5" font-family="Helvetica,sans-Serif" font-size="10.00">isd17xx_interface_spi_read</text>
</a>
</g>
</g>
<!-- Node1&#45;&gt;Node12 -->
<g id="edge11_Node000001_Node000012" class="edge">
<title>Node1&#45;&gt;Node12</title>
<g id="a_edge11_Node000001_Node000012"><a xlink:title=" ">
<path fill="none" stroke="#63b8ff" d="M55,-558.25C66.92,-578.12 95.93,-621.94 132.25,-645 134.55,-646.46 136.96,-647.81 139.44,-649.05"/>
<polygon fill="#63b8ff" stroke="#63b8ff" points="138.04,-652.26 148.61,-653.02 140.82,-645.83 138.04,-652.26"/>
</a>
</g>
</g>
<!-- Node13 -->
<g id="Node000013" class="node">
<title>Node13</title>
<g id="a_Node000013"><a xlink:href="group__isd17xx__interface__driver.html#ga4abec7f06a1a6207c9d621073c60f732" target="_top" xlink:title="interface spi bus transmit">
<polygon fill="white" stroke="#666666" points="257.38,-636 146.88,-636 146.88,-604 257.38,-604 257.38,-636"/>
<text xml:space="preserve" text-anchor="start" x="154.88" y="-622.5" font-family="Helvetica,sans-Serif" font-size="10.00">isd17xx_interface_spi</text>
<text xml:space="preserve" text-anchor="middle" x="202.12" y="-610.5" font-family="Helvetica,sans-Serif" font-size="10.00">_transmit</text>
</a>
</g>
</g>
<!-- Node1&#45;&gt;Node13 -->
<g id="edge12_Node000001_Node000013" class="edge">
<title>Node1&#45;&gt;Node13</title>
<g id="a_edge12_Node000001_Node000013"><a xlink:title=" ">
<path fill="none" stroke="#63b8ff" d="M65.57,-558.38C82.04,-568.52 108.31,-583.98 132.25,-595 135.38,-596.44 138.63,-597.86 141.92,-599.24"/>
<polygon fill="#63b8ff" stroke="#63b8ff" points="140.56,-602.47 151.14,-602.95 143.17,-595.97 140.56,-602.47"/>
</a>
</g>
</g>
<!-- Node14 -->
<g id="Node000014" class="node">
<title>Node14</title>
<g id="a_Node000014"><a xlink:href="group__isd17xx__interface__driver.html#ga70a26e4832a73ec6660f88a44d4290dc" target="_top" xlink:title="interface spi bus write">
<polygon fill="white" stroke="#666666" points="257.38,-586 146.88,-586 146.88,-554 257.38,-554 257.38,-586"/>
<text xml:space="preserve" text-anchor="start" x="154.88" y="-572.5" font-family="Helvetica,sans-Serif" font-size="10.00">isd17xx_interface_spi</text>
<text xml:space="preserve" text-anchor="middle" x="202.12" y="-560.5" font-family="Helvetica,sans-Serif" font-size="10.00">_write</text>
</a>
</g>
</g>
<!-- Node1&#45;&gt;Node14 -->
<g id="edge13_Node000001_Node000014" class="edge">
<title>Node1&#45;&gt;Node14</title>
<g id="a_edge13_Node000001_Node000014"><a xlink:title=" ">
<path fill="none" stroke="#63b8ff" d="M96.39,-554.84C108.65,-556.62 122.09,-558.56 135.13,-560.45"/>
<polygon fill="#63b8ff" stroke="#63b8ff" points="134.55,-563.9 144.95,-561.87 135.55,-556.97 134.55,-563.9"/>
</a>
</g>
</g>
<!-- Node15 -->
<g id="Node000015" class="node">
<title>Node15</title>
<g id="a_Node000015"><a xlink:href="group__isd17xx__base__driver.html#ga3f83cb859495e066ff9ed56388516279" target="_top" xlink:title="power up">
<polygon fill="white" stroke="#666666" points="250.62,-536 153.62,-536 153.62,-516 250.62,-516 250.62,-536"/>
<text xml:space="preserve" text-anchor="middle" x="202.12" y="-522.5" font-family="Helvetica,sans-Serif" font-size="10.00">isd17xx_power_up</text>
</a>
</g>
</g>
<!-- Node1&#45;&gt;Node15 -->
<g id="edge14_Node000001_Node000015" class="edge">
<title>Node1&#45;&gt;Node15</title>
<g id="a_edge14_Node000001_Node000015"><a xlink:title=" ">
<path fill="none" stroke="#63b8ff" d="M96.39,-541.16C110.83,-539.07 126.9,-536.74 142.03,-534.55"/>
<polygon fill="#63b8ff" stroke="#63b8ff" points="142.48,-538.03 151.87,-533.13 141.47,-531.1 142.48,-538.03"/>
</a>
</g>
</g>
<!-- Node16 -->
<g id="Node000016" class="node">
<title>Node16</title>
<g id="a_Node000016"><a xlink:href="group__isd17xx__base__driver.html#gabc0de73c43fbf042accc16fcd08dffe0" target="_top" xlink:title="set the analog output type">
<polygon fill="white" stroke="#666666" points="253.25,-498 151,-498 151,-466 253.25,-466 253.25,-498"/>
<text xml:space="preserve" text-anchor="start" x="159" y="-484.5" font-family="Helvetica,sans-Serif" font-size="10.00">isd17xx_set_analog</text>
<text xml:space="preserve" text-anchor="middle" x="202.12" y="-472.5" font-family="Helvetica,sans-Serif" font-size="10.00">_output</text>
</a>
</g>
</g>
<!-- Node1&#45;&gt;Node16 -->
<g id="edge15_Node000001_Node000016" class="edge">
<title>Node1&#45;&gt;Node16</title>
<g id="a_edge15_Node000001_Node000016"><a xlink:title=" ">
<path fill="none" stroke="#63b8ff" d="M68.66,-537.6C85.33,-528.92 110.05,-516.47 132.25,-507 135.81,-505.48 139.5,-503.97 143.23,-502.49"/>
<polygon fill="#63b8ff" stroke="#63b8ff" points="144.33,-505.82 152.39,-498.94 141.8,-499.29 144.33,-505.82"/>
</a>
</g>
</g>
<!-- Node17 -->
<g id="Node000017" class="node">
<title>Node17</title>
<g id="a_Node000017"><a xlink:href="group__isd17xx__base__driver.html#gae32af1cf83d3354a501e5777d5bfaa3c" target="_top" xlink:title="enable or disable eom stop playing">
<polygon fill="white" stroke="#666666" points="248.38,-448 155.88,-448 155.88,-428 248.38,-428 248.38,-448"/>
<text xml:space="preserve" text-anchor="middle" x="202.12" y="-434.5" font-family="Helvetica,sans-Serif" font-size="10.00">isd17xx_set_eom</text>
</a>
</g>
</g>
<!-- Node1&#45;&gt;Node17 -->
<g id="edge16_Node000001_Node000017" class="edge">
<title>Node1&#45;&gt;Node17</title>
<g id="a_edge16_Node000001_Node000017"><a xlink:title=" ">
<path fill="none" stroke="#63b8ff" d="M55.74,-537.51C68.28,-518.5 97.41,-478.36 132.25,-457 136.24,-454.56 140.54,-452.42 144.98,-450.56"/>
<polygon fill="#63b8ff" stroke="#63b8ff" points="145.93,-453.94 154.1,-447.2 143.51,-447.37 145.93,-453.94"/>
</a>
</g>
</g>
<!-- Node18 -->
<g id="Node000018" class="node">
<title>Node18</title>
<g id="a_Node000018"><a xlink:href="group__isd17xx__base__driver.html#ga398bd26550f1977ada8c27182703831c" target="_top" xlink:title="enable or disable the mix input">
<polygon fill="white" stroke="#666666" points="260,-410 144.25,-410 144.25,-390 260,-390 260,-410"/>
<text xml:space="preserve" text-anchor="middle" x="202.12" y="-396.5" font-family="Helvetica,sans-Serif" font-size="10.00">isd17xx_set_mix_input</text>
</a>
</g>
</g>
<!-- Node1&#45;&gt;Node18 -->
<g id="edge17_Node000001_Node000018" class="edge">
<title>Node1&#45;&gt;Node18</title>
<g id="a_edge17_Node000001_Node000018"><a xlink:title=" ">
<path fill="none" stroke="#63b8ff" d="M52.73,-537.82C61.94,-513.38 88.67,-451.03 132.25,-419 134.01,-417.71 135.86,-416.5 137.77,-415.37"/>
<polygon fill="#63b8ff" stroke="#63b8ff" points="139,-418.67 146.4,-411.08 135.89,-412.4 139,-418.67"/>
</a>
</g>
</g>
<!-- Node19 -->
<g id="Node000019" class="node">
<title>Node19</title>
<g id="a_Node000019"><a xlink:href="group__isd17xx__base__driver.html#gad1d1a2b75da2fa0e96fee6189592cd24" target="_top" xlink:title="enable or disable the monitor input">
<polygon fill="white" stroke="#666666" points="255.12,-372 149.12,-372 149.12,-340 255.12,-340 255.12,-372"/>
<text xml:space="preserve" text-anchor="start" x="157.12" y="-358.5" font-family="Helvetica,sans-Serif" font-size="10.00">isd17xx_set_monitor</text>
<text xml:space="preserve" text-anchor="middle" x="202.12" y="-346.5" font-family="Helvetica,sans-Serif" font-size="10.00">_input</text>
</a>
</g>
</g>
<!-- Node1&#45;&gt;Node19 -->
<g id="edge18_Node000001_Node000019" class="edge">
<title>Node1&#45;&gt;Node19</title>
<g id="a_edge18_Node000001_Node000019"><a xlink:title=" ">
<path fill="none" stroke="#63b8ff" d="M51.39,-537.74C58.3,-508.86 81.75,-426.07 132.25,-381 134.29,-379.18 136.48,-377.49 138.77,-375.91"/>
<polygon fill="#63b8ff" stroke="#63b8ff" points="140.51,-378.95 147.37,-370.87 136.97,-372.91 140.51,-378.95"/>
</a>
</g>
</g>
<!-- Node20 -->
<g id="Node000020" class="node">
<title>Node20</title>
<g id="a_Node000020"><a xlink:href="group__isd17xx__base__driver.html#gab0aa1d8dbba2a2a688e240b8319bbae2" target="_top" xlink:title="enable or disable power up analog output">
<polygon fill="white" stroke="#666666" points="260,-322 144.25,-322 144.25,-290 260,-290 260,-322"/>
<text xml:space="preserve" text-anchor="start" x="152.25" y="-308.5" font-family="Helvetica,sans-Serif" font-size="10.00">isd17xx_set_power_up</text>
<text xml:space="preserve" text-anchor="middle" x="202.12" y="-296.5" font-family="Helvetica,sans-Serif" font-size="10.00">_analog_output</text>
</a>
</g>
</g>
<!-- Node1&#45;&gt;Node20 -->
<g id="edge19_Node000001_Node000020" class="edge">
<title>Node1&#45;&gt;Node20</title>
<g id="a_edge19_Node000001_Node000020"><a xlink:title=" ">
<path fill="none" stroke="#63b8ff" d="M50.08,-537.76C53.8,-503.53 70.38,-391.79 132.25,-331 133,-330.26 133.78,-329.54 134.58,-328.84"/>
<polygon fill="#63b8ff" stroke="#63b8ff" points="136.57,-331.72 142.63,-323.03 132.47,-326.05 136.57,-331.72"/>
</a>
</g>
</g>
<!-- Node21 -->
<g id="Node000021" class="node">
<title>Node21</title>
<g id="a_Node000021"><a xlink:href="group__isd17xx__base__driver.html#gad64429d8498b17ef09d41ab146e19609" target="_top" xlink:title="enable or disable pwm speaker">
<polygon fill="white" stroke="#666666" points="269.38,-272 134.88,-272 134.88,-252 269.38,-252 269.38,-272"/>
<text xml:space="preserve" text-anchor="middle" x="202.12" y="-258.5" font-family="Helvetica,sans-Serif" font-size="10.00">isd17xx_set_pwm_speaker</text>
</a>
</g>
</g>
<!-- Node1&#45;&gt;Node21 -->
<g id="edge20_Node000001_Node000021" class="edge">
<title>Node1&#45;&gt;Node21</title>
<g id="a_edge20_Node000001_Node000021"><a xlink:title=" ">
<path fill="none" stroke="#63b8ff" d="M49.04,-537.51C49.33,-497.77 55.85,-354.94 132.25,-281 133.14,-280.14 134.07,-279.31 135.03,-278.53"/>
<polygon fill="#63b8ff" stroke="#63b8ff" points="136.68,-281.63 143.12,-273.21 132.84,-275.78 136.68,-281.63"/>
</a>
</g>
</g>
<!-- Node22 -->
<g id="Node000022" class="node">
<title>Node22</title>
<g id="a_Node000022"><a xlink:href="group__isd17xx__base__driver.html#ga7bf9bd27b406b3321345528605f9bf9b" target="_top" xlink:title="enable or disable sound effect editing">
<polygon fill="white" stroke="#666666" points="266.75,-234 137.5,-234 137.5,-202 266.75,-202 266.75,-234"/>
<text xml:space="preserve" text-anchor="start" x="145.5" y="-220.5" font-family="Helvetica,sans-Serif" font-size="10.00">isd17xx_set_sound_effect</text>
<text xml:space="preserve" text-anchor="middle" x="202.12" y="-208.5" font-family="Helvetica,sans-Serif" font-size="10.00">_editing</text>
</a>
</g>
</g>
<!-- Node1&#45;&gt;Node22 -->
<g id="edge21_Node000001_Node000022" class="edge">
<title>Node1&#45;&gt;Node22</title>
<g id="a_edge21_Node000001_Node000022"><a xlink:title=" ">
<path fill="none" stroke="#63b8ff" d="M48.76,-537.75C47.82,-495.43 49.89,-332.42 132.25,-243 132.72,-242.49 133.2,-241.99 133.7,-241.5"/>
<polygon fill="#63b8ff" stroke="#63b8ff" points="135.73,-244.35 141.33,-235.35 131.34,-238.9 135.73,-244.35"/>
</a>
</g>
</g>
<!-- Node23 -->
<g id="Node000023" class="node">
<title>Node23</title>
<g id="a_Node000023"><a xlink:href="group__isd17xx__base__driver.html#ga3ed47f2d9340dbc47ddd06480739db17" target="_top" xlink:title="enable or disable spi ft">
<polygon fill="white" stroke="#666666" points="251,-184 153.25,-184 153.25,-164 251,-164 251,-184"/>
<text xml:space="preserve" text-anchor="middle" x="202.12" y="-170.5" font-family="Helvetica,sans-Serif" font-size="10.00">isd17xx_set_spi_ft</text>
</a>
</g>
</g>
<!-- Node1&#45;&gt;Node23 -->
<g id="edge22_Node000001_Node000023" class="edge">
<title>Node1&#45;&gt;Node23</title>
<g id="a_edge22_Node000001_Node000023"><a xlink:title=" ">
<path fill="none" stroke="#63b8ff" d="M50.13,-537.71C55.49,-484.91 82.34,-244.9 132.25,-193 135.35,-189.77 138.95,-187.08 142.84,-184.83"/>
<polygon fill="#63b8ff" stroke="#63b8ff" points="144.03,-188.14 151.63,-180.75 141.08,-181.79 144.03,-188.14"/>
</a>
</g>
</g>
<!-- Node24 -->
<g id="Node000024" class="node">
<title>Node24</title>
<g id="a_Node000024"><a xlink:href="group__isd17xx__base__driver.html#ga69bc78be73cb11134d8aa5b2394e70c5" target="_top" xlink:title="set the chip type">
<polygon fill="white" stroke="#666666" points="248.38,-146 155.88,-146 155.88,-126 248.38,-126 248.38,-146"/>
<text xml:space="preserve" text-anchor="middle" x="202.12" y="-132.5" font-family="Helvetica,sans-Serif" font-size="10.00">isd17xx_set_type</text>
</a>
</g>
</g>
<!-- Node1&#45;&gt;Node24 -->
<g id="edge23_Node000001_Node000024" class="edge">
<title>Node1&#45;&gt;Node24</title>
<g id="a_edge23_Node000001_Node000024"><a xlink:title=" ">
<path fill="none" stroke="#63b8ff" d="M49.88,-537.75C54.19,-481.74 77.53,-213.15 132.25,-155 135.99,-151.03 140.47,-147.86 145.33,-145.34"/>
<polygon fill="#63b8ff" stroke="#63b8ff" points="146.44,-148.67 154.33,-141.6 143.75,-142.21 146.44,-148.67"/>
</a>
</g>
</g>
<!-- Node25 -->
<g id="Node000025" class="node">
<title>Node25</title>
<g id="a_Node000025"><a xlink:href="group__isd17xx__base__driver.html#gac1f48cebdb90bcb881ac91fd61827890" target="_top" xlink:title="enable or disable v alert">
<polygon fill="white" stroke="#666666" points="253.62,-108 150.62,-108 150.62,-88 253.62,-88 253.62,-108"/>
<text xml:space="preserve" text-anchor="middle" x="202.12" y="-94.5" font-family="Helvetica,sans-Serif" font-size="10.00">isd17xx_set_v_alert</text>
</a>
</g>
</g>
<!-- Node1&#45;&gt;Node25 -->
<g id="edge24_Node000001_Node000025" class="edge">
<title>Node1&#45;&gt;Node25</title>
<g id="a_edge24_Node000001_Node000025"><a xlink:title=" ">
<path fill="none" stroke="#63b8ff" d="M49.68,-537.56C53.07,-477.97 72.77,-181.36 132.25,-117 134.66,-114.4 137.38,-112.14 140.33,-110.18"/>
<polygon fill="#63b8ff" stroke="#63b8ff" points="141.81,-113.36 149.02,-105.6 138.55,-107.16 141.81,-113.36"/>
</a>
</g>
</g>
<!-- Node26 -->
<g id="Node000026" class="node">
<title>Node26</title>
<g id="a_Node000026"><a xlink:href="group__isd17xx__base__driver.html#ga613d80430b6e470f1a5c26a9fb1ad87a" target="_top" xlink:title="set the volume">
<polygon fill="white" stroke="#666666" points="254.75,-70 149.5,-70 149.5,-50 254.75,-50 254.75,-70"/>
<text xml:space="preserve" text-anchor="middle" x="202.12" y="-56.5" font-family="Helvetica,sans-Serif" font-size="10.00">isd17xx_set_volume</text>
</a>
</g>
</g>
<!-- Node1&#45;&gt;Node26 -->
<g id="edge25_Node000001_Node000026" class="edge">
<title>Node1&#45;&gt;Node26</title>
<g id="a_edge25_Node000001_Node000026"><a xlink:title=" ">
<path fill="none" stroke="#63b8ff" d="M49.49,-537.88C51.94,-476.07 67.81,-149.78 132.25,-79 134.37,-76.67 136.74,-74.62 139.3,-72.81"/>
<polygon fill="#63b8ff" stroke="#63b8ff" points="140.9,-75.93 147.94,-68 137.5,-69.81 140.9,-75.93"/>
</a>
</g>
</g>
<!-- Node27 -->
<g id="Node000027" class="node">
<title>Node27</title>
<g id="a_Node000027"><a xlink:href="group__isd17xx__base__driver.html#gae32cc5ca7f7028fc38b8a72d31c78fd7" target="_top" xlink:title="set the volume control type">
<polygon fill="white" stroke="#666666" points="254.75,-32 149.5,-32 149.5,0 254.75,0 254.75,-32"/>
<text xml:space="preserve" text-anchor="start" x="157.5" y="-18.5" font-family="Helvetica,sans-Serif" font-size="10.00">isd17xx_set_volume</text>
<text xml:space="preserve" text-anchor="middle" x="202.12" y="-6.5" font-family="Helvetica,sans-Serif" font-size="10.00">_control</text>
</a>
</g>
</g>
<!-- Node1&#45;&gt;Node27 -->
<g id="edge26_Node000001_Node000027" class="edge">
<title>Node1&#45;&gt;Node27</title>
<g id="a_edge26_Node000001_Node000027"><a xlink:title=" ">
<path fill="none" stroke="#63b8ff" d="M49.44,-537.57C51.59,-472.32 66.19,-120.63 132.25,-41 134.38,-38.43 136.8,-36.12 139.43,-34.06"/>
<polygon fill="#63b8ff" stroke="#63b8ff" points="141.22,-37.06 147.75,-28.71 137.44,-31.17 141.22,-37.06"/>
</a>
</g>
</g>
</g>
</svg>
