<?xml version="1.0" encoding="UTF-8" standalone="no"?>
<!DOCTYPE svg PUBLIC "-//W3C//DTD SVG 1.1//EN"
 "http://www.w3.org/Graphics/SVG/1.1/DTD/svg11.dtd">
<!-- Generated by graphviz version 13.1.0 (20250701.0955)
 -->
<!-- Title: isd17xx_basic_play Pages: 1 -->
<svg width="237pt" height="66pt"
 viewBox="0.00 0.00 237.00 66.00" xmlns="http://www.w3.org/2000/svg" xmlns:xlink="http://www.w3.org/1999/xlink">
<g id="graph0" class="graph" transform="scale(1 1) rotate(0) translate(4 62)">
<title>isd17xx_basic_play</title>
<!-- Node1 -->
<g id="Node000001" class="node">
<title>Node1</title>
<g id="a_Node000001"><a xlink:title="basic example play">
<polygon fill="#999999" stroke="#666666" points="101.5,-39 0,-39 0,-19 101.5,-19 101.5,-39"/>
<text xml:space="preserve" text-anchor="middle" x="50.75" y="-25.5" font-family="Helvetica,sans-Serif" font-size="10.00">isd17xx_basic_play</text>
</a>
</g>
</g>
<!-- Node2 -->
<g id="Node000002" class="node">
<title>Node2</title>
<g id="a_Node000002"><a xlink:href="group__isd17xx__base__driver.html#gafc69b7b355639af928c37f89a3d1a1ba" target="_top" xlink:title="play">
<polygon fill="white" stroke="#666666" points="219.88,-58 146.88,-58 146.88,-38 219.88,-38 219.88,-58"/>
<text xml:space="preserve" text-anchor="middle" x="183.38" y="-44.5" font-family="Helvetica,sans-Serif" font-size="10.00">isd17xx_play</text>
</a>
</g>
</g>
<!-- Node1&#45;&gt;Node2 -->
<g id="edge1_Node000001_Node000002" class="edge">
<title>Node1&#45;&gt;Node2</title>
<g id="a_edge1_Node000001_Node000002"><a xlink:title=" ">
<path fill="none" stroke="#63b8ff" d="M101.88,-36.29C112.99,-37.91 124.71,-39.61 135.68,-41.21"/>
<polygon fill="#63b8ff" stroke="#63b8ff" points="134.87,-44.63 145.27,-42.6 135.88,-37.7 134.87,-44.63"/>
</a>
</g>
</g>
<!-- Node3 -->
<g id="Node000003" class="node">
<title>Node3</title>
<g id="a_Node000003"><a xlink:href="group__isd17xx__base__driver.html#ga9ea8ea632b2c76def4eae2c3d31bb03a" target="_top" xlink:title="set the play point">
<polygon fill="white" stroke="#666666" points="229.25,-20 137.5,-20 137.5,0 229.25,0 229.25,-20"/>
<text xml:space="preserve" text-anchor="middle" x="183.38" y="-6.5" font-family="Helvetica,sans-Serif" font-size="10.00">isd17xx_set_play</text>
</a>
</g>
</g>
<!-- Node1&#45;&gt;Node3 -->
<g id="edge2_Node000001_Node000003" class="edge">
<title>Node1&#45;&gt;Node3</title>
<g id="a_edge2_Node000001_Node000003"><a xlink:title=" ">
<path fill="none" stroke="#63b8ff" d="M101.88,-21.71C109.8,-20.56 118.04,-19.36 126.09,-18.19"/>
<polygon fill="#63b8ff" stroke="#63b8ff" points="126.41,-21.68 135.8,-16.77 125.4,-14.75 126.41,-21.68"/>
</a>
</g>
</g>
</g>
</svg>
