<?xml version="1.0" encoding="UTF-8" standalone="no"?>
<!DOCTYPE svg PUBLIC "-//W3C//DTD SVG 1.1//EN"
 "http://www.w3.org/Graphics/SVG/1.1/DTD/svg11.dtd">
<!-- Generated by graphviz version 13.1.0 (20250701.0955)
 -->
<!-- Title: isd17xx_basic_poll Pages: 1 -->
<svg width="282pt" height="66pt"
 viewBox="0.00 0.00 282.00 66.00" xmlns="http://www.w3.org/2000/svg" xmlns:xlink="http://www.w3.org/1999/xlink">
<g id="graph0" class="graph" transform="scale(1 1) rotate(0) translate(4 62)">
<title>isd17xx_basic_poll</title>
<!-- Node1 -->
<g id="Node000001" class="node">
<title>Node1</title>
<g id="a_Node000001"><a xlink:title="basic example poll">
<polygon fill="#999999" stroke="#666666" points="98.5,-39 0,-39 0,-19 98.5,-19 98.5,-39"/>
<text xml:space="preserve" text-anchor="middle" x="49.25" y="-25.5" font-family="Helvetica,sans-Serif" font-size="10.00">isd17xx_basic_poll</text>
</a>
</g>
</g>
<!-- Node2 -->
<g id="Node000002" class="node">
<title>Node2</title>
<g id="a_Node000002"><a xlink:href="group__isd17xx__base__driver.html#ga8ad05bebe1927670dafb8ecca24781fb" target="_top" xlink:title="get the status">
<polygon fill="white" stroke="#666666" points="254.75,-58 154,-58 154,-38 254.75,-38 254.75,-58"/>
<text xml:space="preserve" text-anchor="middle" x="204.38" y="-44.5" font-family="Helvetica,sans-Serif" font-size="10.00">isd17xx_get_status</text>
</a>
</g>
</g>
<!-- Node1&#45;&gt;Node2 -->
<g id="edge1_Node000001_Node000002" class="edge">
<title>Node1&#45;&gt;Node2</title>
<g id="a_edge1_Node000001_Node000002"><a xlink:title=" ">
<path fill="none" stroke="#63b8ff" d="M98.7,-35.01C112.53,-36.73 127.78,-38.62 142.25,-40.42"/>
<polygon fill="#63b8ff" stroke="#63b8ff" points="141.8,-43.89 152.16,-41.64 142.66,-36.94 141.8,-43.89"/>
</a>
</g>
</g>
<!-- Node3 -->
<g id="Node000003" class="node">
<title>Node3</title>
<g id="a_Node000003"><a xlink:href="group__isd17xx__interface__driver.html#ga0f0857d195891cd641fe9252421946e2" target="_top" xlink:title="interface delay ms">
<polygon fill="white" stroke="#666666" points="274.25,-20 134.5,-20 134.5,0 274.25,0 274.25,-20"/>
<text xml:space="preserve" text-anchor="middle" x="204.38" y="-6.5" font-family="Helvetica,sans-Serif" font-size="10.00">isd17xx_interface_delay_ms</text>
</a>
</g>
</g>
<!-- Node1&#45;&gt;Node3 -->
<g id="edge2_Node000001_Node000003" class="edge">
<title>Node1&#45;&gt;Node3</title>
<g id="a_edge2_Node000001_Node000003"><a xlink:title=" ">
<path fill="none" stroke="#63b8ff" d="M98.7,-22.99C106.47,-22.02 114.69,-21 122.97,-19.98"/>
<polygon fill="#63b8ff" stroke="#63b8ff" points="123.27,-23.47 132.76,-18.76 122.4,-16.52 123.27,-23.47"/>
</a>
</g>
</g>
</g>
</svg>
