<?xml version="1.0" encoding="UTF-8" standalone="no"?>
<!DOCTYPE svg PUBLIC "-//W3C//DTD SVG 1.1//EN"
 "http://www.w3.org/Graphics/SVG/1.1/DTD/svg11.dtd">
<!-- Generated by graphviz version 13.1.0 (20250701.0955)
 -->
<!-- Title: isd17xx_basic_global_erase Pages: 1 -->
<svg width="293pt" height="104pt"
 viewBox="0.00 0.00 293.00 104.00" xmlns="http://www.w3.org/2000/svg" xmlns:xlink="http://www.w3.org/1999/xlink">
<g id="graph0" class="graph" transform="scale(1 1) rotate(0) translate(4 100)">
<title>isd17xx_basic_global_erase</title>
<!-- Node1 -->
<g id="Node000001" class="node">
<title>Node1</title>
<g id="a_Node000001"><a xlink:title="basic example global erase">
<polygon fill="#999999" stroke="#666666" points="109,-64 0,-64 0,-32 109,-32 109,-64"/>
<text xml:space="preserve" text-anchor="start" x="8" y="-50.5" font-family="Helvetica,sans-Serif" font-size="10.00">isd17xx_basic_global</text>
<text xml:space="preserve" text-anchor="middle" x="54.5" y="-38.5" font-family="Helvetica,sans-Serif" font-size="10.00">_erase</text>
</a>
</g>
</g>
<!-- Node2 -->
<g id="Node000002" class="node">
<title>Node2</title>
<g id="a_Node000002"><a xlink:href="group__isd17xx__base__driver.html#ga8ad05bebe1927670dafb8ecca24781fb" target="_top" xlink:title="get the status">
<polygon fill="white" stroke="#666666" points="265.25,-96 164.5,-96 164.5,-76 265.25,-76 265.25,-96"/>
<text xml:space="preserve" text-anchor="middle" x="214.88" y="-82.5" font-family="Helvetica,sans-Serif" font-size="10.00">isd17xx_get_status</text>
</a>
</g>
</g>
<!-- Node1&#45;&gt;Node2 -->
<g id="edge1_Node000001_Node000002" class="edge">
<title>Node1&#45;&gt;Node2</title>
<g id="a_edge1_Node000001_Node000002"><a xlink:title=" ">
<path fill="none" stroke="#63b8ff" d="M109.12,-60.87C125.31,-64.75 143.09,-69.02 159.33,-72.91"/>
<polygon fill="#63b8ff" stroke="#63b8ff" points="158.28,-76.26 168.83,-75.19 159.92,-69.45 158.28,-76.26"/>
</a>
</g>
</g>
<!-- Node3 -->
<g id="Node000003" class="node">
<title>Node3</title>
<g id="a_Node000003"><a xlink:href="group__isd17xx__base__driver.html#ga0d62fb4eb245690b9080be7e434132ec" target="_top" xlink:title="global erase">
<polygon fill="white" stroke="#666666" points="269.75,-58 160,-58 160,-38 269.75,-38 269.75,-58"/>
<text xml:space="preserve" text-anchor="middle" x="214.88" y="-44.5" font-family="Helvetica,sans-Serif" font-size="10.00">isd17xx_global_erase</text>
</a>
</g>
</g>
<!-- Node1&#45;&gt;Node3 -->
<g id="edge2_Node000001_Node000003" class="edge">
<title>Node1&#45;&gt;Node3</title>
<g id="a_edge2_Node000001_Node000003"><a xlink:title=" ">
<path fill="none" stroke="#63b8ff" d="M109.12,-48C121.68,-48 135.21,-48 148.23,-48"/>
<polygon fill="#63b8ff" stroke="#63b8ff" points="147.99,-51.5 157.99,-48 147.99,-44.5 147.99,-51.5"/>
</a>
</g>
</g>
<!-- Node4 -->
<g id="Node000004" class="node">
<title>Node4</title>
<g id="a_Node000004"><a xlink:href="group__isd17xx__interface__driver.html#ga0f0857d195891cd641fe9252421946e2" target="_top" xlink:title="interface delay ms">
<polygon fill="white" stroke="#666666" points="284.75,-20 145,-20 145,0 284.75,0 284.75,-20"/>
<text xml:space="preserve" text-anchor="middle" x="214.88" y="-6.5" font-family="Helvetica,sans-Serif" font-size="10.00">isd17xx_interface_delay_ms</text>
</a>
</g>
</g>
<!-- Node1&#45;&gt;Node4 -->
<g id="edge3_Node000001_Node000004" class="edge">
<title>Node1&#45;&gt;Node4</title>
<g id="a_edge3_Node000001_Node000004"><a xlink:title=" ">
<path fill="none" stroke="#63b8ff" d="M109.12,-35.13C125.31,-31.25 143.09,-26.98 159.33,-23.09"/>
<polygon fill="#63b8ff" stroke="#63b8ff" points="159.92,-26.55 168.83,-20.81 158.28,-19.74 159.92,-26.55"/>
</a>
</g>
</g>
</g>
</svg>
